name processed_emg_signals
nRows=83
nColumns=7
 
endheader
time	RGLTMED	RRF	RADDLONG	RBF	RTA	RGM
7.52	0.0181619368714467	0.0464930549293037	0.1266935576827351	0.0328166147128691	0.0088614025145952	0.0074635638860467
7.529999999999999	0.0190192171636273	0.0478234327734059	0.1100701009205028	0.0336975225736264	0.0069862248830664	0.0044132324476058
7.539999999999999	0.0198692827502926	0.0491497293505349	0.093465893816483	0.0345766267033338	0.0051028649768664	0.0013754981323089
7.549999999999999	0.0207114678072618	0.050470955444109	0.0768893633488204	0.0354533334851779	0.0032120749147764	0.001647977034162
7.559999999999999	0.0215451137772356	0.0517861254377373	0.060348869723638	0.0363270536392165	0.0013146086449687	0.0046555527598576
7.5699999999999985	0.0223695704769993	0.0530942589829803	0.0438526956016376	0.0371972033391687	0.0005887788476427	0.0076456127715852
7.579999999999998	0.0231841971988225	0.0543943826672041	0.0274090355378822	0.0380632053261255	0.0024973323139862	0.0106165670554278
7.589999999999998	0.0239883638031319	0.0556855316760569	0.0110259856578119	0.0389244900152186	0.0044102969910741	0.0135668540480503
7.599999999999998	0.0247814517995109	0.0569667514451006	0.0052884664079626	0.0397804965912274	0.0063269193278649	0.0164949427741837
7.609999999999998	0.0255628554130382	0.0582370992951378	0.0215264513080741	0.0406306740890637	0.0082464476848572	0.0193993349257447
7.619999999999997	0.026331982632961	0.0594956460457513	0.0376802274525837	0.0414744824550352	0.0101681330056682	0.0222785668780478
7.629999999999997	0.0270882562406586	0.0607414776015014	0.0537421901721747	0.0423113935848212	0.012091229458972	0.0251312116386163
7.639999999999997	0.027831114813812	0.0619736965051333	0.0697048805343483	0.0431408923341564	0.0140149950492682	0.0279558807241007
7.649999999999997	0.0285600137036643	0.0631914234520686	0.0855609937974788	0.0439624774982986	0.01593869219503	0.0307512259609129
7.659999999999997	0.0292744259822522	0.0643937987604355	0.1013033874845426	0.0447756627564159	0.0178615882728306	0.0335159412052116
7.669999999999996	0.0299738433564956	0.0655799837909053	0.1169250890596494	0.0455799775770656	0.0197829561261091	0.0362487639779032
7.679999999999996	0.0306577770461005	0.0667491623105836	0.1324193031923385	0.0463749680808815	0.0217020745373254	0.0389484770103133
7.689999999999996	0.0313257586222306	0.0679005417951741	0.1477794185970198	0.0471601978565346	0.0236182286623797	0.0416139096961947
7.699999999999996	0.0319773408039039	0.0690333546635704	0.1629990144374313	0.0479352487259884	0.0255307104264295	0.0442439394457798
7.7099999999999955	0.032612098209048	0.0701468594389908	0.1780718662881871	0.0486997214550799	0.0274388188805736	0.0468374929377117
7.719999999999995	0.0332296280571232	0.0712403418307251	0.1929919516471269	0.0494532364055653	0.0293418605192845	0.0493935472647793
7.729999999999995	0.0338295508202633	0.0723131157305439	0.207753454993314	0.0501954341249127	0.0312391495587924	0.0519111309694892
7.739999999999995	0.034411510819994	0.0733645241178159	0.2223507723862968	0.0509259758702116	0.0331300081768642	0.0543893249655723
7.749999999999995	0.0349751767668879	0.0743939398675015	0.2367785156026287	0.0516445440626864	0.0350137667145687	0.0568272633416341
7.7599999999999945	0.0355202422410635	0.0754007664557733	0.2510315158057348	0.0523508426695913	0.0368897638407761	0.0592241340434154
7.769999999999994	0.0360464261122086	0.0763844385594375	0.2651048267451554	0.0530445975109288	0.0387573466803162	0.0615791794316064
7.779999999999994	0.0365534728986934	0.0773444225477323	0.2789937274812278	0.0537255564895793	0.0406158709070086	0.0638916967129502
7.789999999999994	0.03704115306603	0.0782802168679061	0.2926937246315912	0.0543934897447247	0.0424647008030372	0.0661610382434013
7.799999999999994	0.0375092632653195	0.0791913523283469	0.3062005541364722	0.0550481897295523	0.0443032092864766	0.0683866117032082
7.809999999999993	0.0379576265124367	0.0800773922844313	0.3195101825405259	0.0556894712149812	0.0461307779089498	0.0705678801447822
7.819999999999993	0.0383860923087219	0.0809379327327905	0.3326188077897104	0.0563171712216159	0.0479467968255194	0.0727043619149929
7.829999999999993	0.0387945367039014	0.0817726023197537	0.3455228595423861	0.0569311488824442	0.0497506647389673	0.0747956304541326
7.839999999999993	0.0391828623020294	0.0825810622696348	0.3582189989946515	0.0575312852389338	0.0515417888205987	0.0768413139742445
7.8499999999999925	0.039550998211348	0.0833630062384248	0.3707041182213526	0.0581174829732893	0.0533195846097618	0.0788410950199621
7.859999999999992	0.0398988999391369	0.0841181600983717	0.3829753390362472	0.0586896660796153	0.05508347589432	0.0807947099154593
7.869999999999992	0.0402265492328861	0.0848462816588716	0.3950300113773535	0.059247779476757	0.0568328945744853	0.082701948101619
7.879999999999992	0.0405339538693931	0.0855471603289593	0.4068657112265469	0.0597917885655813	0.0585672805126506	0.0845626513679568
7.889999999999992	0.0408211473936549	0.0862206167264988	0.4184802380759567	0.0603216787335221	0.0602860813720944	0.0863767129841327
7.8999999999999915	0.041088188809587	0.0868665022389782	0.4298716119572586	0.0608374548093398	0.0619887524475993	0.0881440767360911
7.909999999999991	0.041335162224647	0.0874846985406335	0.4410380700532489	0.0613391404712325	0.0636747564911369	0.0898647358719895
7.919999999999991	0.041562176450382	0.088075117070434	0.4519780629141362	0.0618267776116076	0.0653435635357931	0.0915387319632185
7.929999999999991	0.0417693645608265	0.0886376984753367	0.46269025030383	0.0623004256618802	0.0669946507211243	0.093166153686005
7.939999999999991	0.0419568834106062	0.0891724120230367	0.4731734967038229	0.0627601608806596	0.0686275021231345	0.0947471355293728
7.94999999999999	0.0421249131145513	0.0896792549882657	0.4834268665038543	0.0632060756086413	0.0702416085920968	0.0962818564354701
7.95999999999999	0.0422736564906257	0.0901582520164468	0.4934496189094439	0.0636382774934862	0.0718364676014183	0.0977705383783658
7.96999999999999	0.042403338468024	0.0906094544682623	0.503241202596589	0.0640568886879464	0.0734115831107199	0.0992134448873082
7.97999999999999	0.0425142054623762	0.0910329397484533	0.5128012501433546	0.0644620450244835	0.0749664654461872	0.1006108795202126
7.9899999999999896	0.0426065247200845	0.0914288106219717	0.5221295722669889	0.0648538951696046	0.076500631201117	0.1019631842929248
7.999999999999989	0.042680583633857	0.0917971945203925	0.5312261518938369	0.0652325997612178	0.0780136031594369	0.1032707380696534
8.00999999999999	0.0427366890315425	0.092138242841302	0.5400911380879518	0.0655983305324026	0.0795049102447886	0.1045339549199295
8.019999999999989	0.0427751664404176	0.0924521302431235	0.548724839862961	0.0659512694251169	0.0809740874975684	0.1057532824474803
8.029999999999989	0.0427963593291014	0.0927390539376098	0.5571277199004345	0.0662916076973811	0.0824206760820872	0.106929200096414
8.039999999999988	0.0428006283293019	0.0929992329820077	0.5653003881967066	0.0666195450274485	0.0838442233257989	0.1080622174400981
8.049999999999988	0.0427883504395518	0.0932329075727766	0.5732435956588398	0.0669352886183424	0.0852442827923123	0.1091528724579582
8.059999999999988	0.04275991821308	0.0934403383426291	0.5809582276693467	0.0672390523060313	0.0866204143897168	0.1102017298052348
8.069999999999988	0.0427157389319317	0.093621805662592	0.5884452976382322	0.0675310556744192	0.087972184515555	0.1112093790804746
8.079999999999988	0.0426562337694158	0.0937776089506283	0.5957059405601551	0.0678115231802565	0.0892991662395715	0.1121764330952749
8.089999999999987	0.0425818369429069	0.0939080659881495	0.6027414065941766	0.0680806832910008	0.0906009395251983	0.1131035261505159
8.099999999999987	0.0424929948589502	0.0940135122455181	0.609553054683881	0.0683387676385838	0.0918770914905731	0.113991312323143
8.109999999999987	0.0423901652526185	0.0940943002173722	0.6161423462364028	0.0685860101919098	0.0931272167097013	0.1148404637673461
8.119999999999987	0.0422738163230182	0.0941507987683726	0.6225108388797101	0.0688226464508245	0.094350917554222	0.1156516690338468
8.129999999999987	0.0421444258668831	0.0941833924897273	0.6286601803180446	0.0690489126641329	0.0955478045760194	0.11642563141081
8.139999999999986	0.0420024804121537	0.0941924810667049	0.6345921023055193	0.069265045074087	0.0967174969307241	0.1171630672898047
8.149999999999986	0.0418484743534562	0.0941784786572186	0.6403084147574514	0.0694712791895606	0.0978596228419524	0.1178647045602219
8.159999999999986	0.0416829090913159	0.0941418132815742	0.6458110000182486	0.0696678490899601	0.0989738201059168	0.1185312810356385
8.169999999999986	0.0415062921768638	0.0940829262234787	0.6511018073035962	0.069854986761771	0.1000597366358428	0.1191635429157066
8.179999999999986	0.0413191364636975	0.094002271442471	0.6561828473332124	0.0700329214695368	0.1011170310453985	0.1197622432871279
8.189999999999985	0.0411219592684209	0.0939003149979431	0.6610561871687464	0.0702018791629452	0.1021453732700671	0.1203281406672736
8.199999999999985	0.0409152815413081	0.0937775344849411	0.6657239452696371	0.0703620819215331	0.1031444452251055	0.1208619975939513
8.209999999999985	0.0406996270484037	0.0936344184818604	0.6701882867780911	0.0705137474383383	0.1041139414983974	0.121364579264769
8.219999999999985	0.0404755215663113	0.0934714660100425	0.6744514190427098	0.0706570885435839	0.1050535700762342	0.1218366522293562
8.229999999999984	0.0402434920908179	0.0932891860050975	0.6785155873886638	0.070792312769276	0.1059630530997575	0.1222789831374384
8.239999999999984	0.0400040660604787	0.0930880967996155	0.6823830711407035	0.0709196219553864	0.1068421276495354	0.122692337545437
8.249999999999984	0.0397577705962096	0.0928687256167333	0.6860561799037599	0.0710392118981498	0.1076905465554894	0.1230774787839068
8.259999999999984	0.0395051317579239	0.0926316080738701	0.6895372501044051	0.0711512720408983	0.1085080792291049	0.1234351668877972
8.269999999999984	0.0392466738191639	0.092377287695793	0.6928286417951188	0.0712559852077656	0.1092945125146026	0.1237661575911236
8.279999999999983	0.0389829185606477	0.0921063154360527	0.6959327357219964	0.0713535273805289	0.1100496515554888	0.124071201387304
8.289999999999983	0.0387143845835405	0.0918192492056979	0.6988519306552008	0.0714440675187788	0.1107733206726337	0.1243510426560733
8.299999999999983	0.0384415866431857	0.091516653408165	0.7015886409798678	0.071527767423565	0.1114653642497533	0.1246064188576172
8.309999999999983	0.0381650350039258	0.0911990984793575	0.7041452945433382	0.0716047816446206	0.1121256476218724	0.1248380597943521
8.319999999999983	0.0378852348155337	0.0908671604322018	0.7065243307525982	0.07167525743116	0.1127540579620355	0.1250466869405069
8.329999999999982	0.03760268551168	0.0905214204053197	0.7087281989141612	0.071739334726092	0.1133505051611969	0.125233012839439
8.339999999999982	0.0373178802308142	0.0901624642156635	0.7107593568077335	0.0717971462033288	0.1139149226958578	0.1253977405683755
